<svg width="94" height="95" xmlns="http://www.w3.org/2000/svg" xmlns:xlink="http://www.w3.org/1999/xlink" overflow="hidden"><defs><clipPath id="clip0"><rect x="560" y="698" width="94" height="95"/></clipPath></defs><g clip-path="url(#clip0)" transform="translate(-560 -698)"><path d="M43.0833 3.91667 43.0833 7.83333 27.4167 7.83333C20.9273 7.83333 15.6667 13.094 15.6667 19.5833L15.6667 31.3333C15.6667 42.1489 24.4344 50.9167 35.25 50.9167L58.75 50.9167C69.5656 50.9167 78.3333 42.1489 78.3333 31.3333L78.3333 19.5833C78.3333 13.094 73.0727 7.83333 66.5833 7.83333L50.9167 7.83333 50.9167 3.91667 43.0833 3.91667ZM23.5 19.5833C23.5 17.4202 25.2536 15.6667 27.4167 15.6667L66.5833 15.6667C68.7464 15.6667 70.5 17.4202 70.5 19.5833L70.5 31.3333C70.5 37.8227 65.2393 43.0833 58.75 43.0833L35.25 43.0833C28.7607 43.0833 23.5 37.8227 23.5 31.3333L23.5 19.5833ZM37.2083 35.25C40.453 35.25 43.0833 32.6197 43.0833 29.375 43.0833 26.1303 40.453 23.5 37.2083 23.5 33.9636 23.5 31.3333 26.1303 31.3333 29.375 31.3333 32.6197 33.9636 35.25 37.2083 35.25ZM56.7917 35.25C60.0364 35.25 62.6667 32.6197 62.6667 29.375 62.6667 26.1303 60.0364 23.5 56.7917 23.5 53.547 23.5 50.9167 26.1303 50.9167 29.375 50.9167 32.6197 53.547 35.25 56.7917 35.25ZM23.5 86.1667C23.5 73.188 34.0213 62.6667 47 62.6667 59.9787 62.6667 70.5 73.188 70.5 86.1667L78.3333 86.1667C78.3333 68.8618 64.3049 54.8333 47 54.8333 29.6951 54.8333 15.6667 68.8618 15.6667 86.1667L23.5 86.1667Z" fill="#1296DB" transform="matrix(1 0 0 1.01064 560 698)"/></g></svg>